<svg width="24" height="24" viewBox="0 0 24 24" fill="none" xmlns="http://www.w3.org/2000/svg">
<path d="M16.8 3.2V7.2C16.8 8.47304 16.2943 9.69394 15.3941 10.5941C14.4939 11.4943 13.273 12 12 12C10.727 12 9.50606 11.4943 8.60588 10.5941C7.70571 9.69394 7.19999 8.47304 7.19999 7.2V3.2M2.39999 2.4V21.6C2.39999 22.0243 2.56856 22.4313 2.86862 22.7314C3.16868 23.0314 3.57565 23.2 3.99999 23.2H20C20.4243 23.2 20.8313 23.0314 21.1314 22.7314C21.4314 22.4313 21.6 22.0243 21.6 21.6V2.4C21.6 1.97565 21.4314 1.56869 21.1314 1.26863C20.8313 0.96857 20.4243 0.799999 20 0.799999H3.99999C3.57565 0.799999 3.16868 0.96857 2.86862 1.26863C2.56856 1.56869 2.39999 1.97565 2.39999 2.4Z" stroke="#2F2F2F" stroke-width="1.6"/>
</svg>
