<svg width="24" height="24" viewBox="0 0 24 24" fill="none" xmlns="http://www.w3.org/2000/svg">
<path d="M17.613 15.516C19.0654 13.534 19.716 11.0767 19.4345 8.63572C19.1529 6.19471 17.9601 3.95001 16.0947 2.35069C14.2292 0.75138 11.8286 -0.0845965 9.37326 0.0100132C6.91789 0.104623 4.58878 1.12284 2.85191 2.86096C1.11503 4.59908 0.0984798 6.92891 0.00562703 9.38435C-0.0872257 11.8398 0.750468 14.2397 2.35112 16.1041C3.95176 17.9684 6.19732 19.1596 8.63853 19.4394C11.0797 19.7192 13.5366 19.0669 15.5175 17.613H15.516C15.561 17.673 15.609 17.73 15.663 17.7855L21.438 23.5605C21.7193 23.842 22.1008 24.0002 22.4987 24.0003C22.8966 24.0004 23.2783 23.8425 23.5598 23.5612C23.8412 23.28 23.9994 22.8984 23.9996 22.5005C23.9997 22.1026 23.8418 21.721 23.5605 21.4395L17.7855 15.6645C17.7319 15.6102 17.6742 15.5616 17.613 15.516ZM18 9.75C18 10.8334 17.7866 11.9062 17.372 12.9071C16.9574 13.9081 16.3497 14.8175 15.5836 15.5836C14.8176 16.3497 13.9081 16.9574 12.9071 17.372C11.9062 17.7866 10.8334 18 9.75 18C8.6666 18 7.5938 17.7866 6.59287 17.372C5.59193 16.9574 4.68246 16.3497 3.91637 15.5836C3.15029 14.8175 2.5426 13.9081 2.128 12.9071C1.7134 11.9062 1.5 10.8334 1.5 9.75C1.5 7.56196 2.3692 5.46354 3.91637 3.91637C5.46355 2.36919 7.56197 1.5 9.75 1.5C11.938 1.5 14.0365 2.36919 15.5836 3.91637C17.1308 5.46354 18 7.56196 18 9.75Z" fill="#2F2F2F"/>
</svg>
